<svg width="22" height="22" viewBox="0 0 22 22" fill="none" xmlns="http://www.w3.org/2000/svg">
<g id="facebook copy">
<path id="Path" d="M22 10.9543C22 16.422 17.9773 20.9539 12.7188 21.7755V14.1208H15.2818L15.7695 10.9543H12.7188V8.89951C12.7188 8.03301 13.145 7.18876 14.5114 7.18876H15.8984V4.49297C15.8984 4.49297 14.6395 4.27902 13.4359 4.27902C10.9235 4.27902 9.28125 5.79551 9.28125 8.54093V10.9543H6.48828V14.1208H9.28125V21.7755C4.02273 20.9539 0 16.422 0 10.9543C0 4.90461 4.92508 0 11 0C17.0749 0 22 4.90461 22 10.9543Z" fill="#3A337C"/>
<path id="Path_2" d="M15.321 14.1656L15.8097 10.9802H12.7529V8.91313C12.7529 8.04168 13.1799 7.19222 14.549 7.19222H15.9388V4.48036C15.9388 4.48036 14.6775 4.26514 13.4717 4.26514C10.9541 4.26514 9.30869 5.79066 9.30869 8.55246V10.9802H6.51025V14.1656H9.30869V21.8659C9.86984 21.9539 10.4449 21.9998 11.0308 21.9998C11.6167 21.9998 12.1918 21.9539 12.7529 21.8659V14.1656H15.321Z" fill="white"/>
</g>
</svg>
