<svg width="38" height="38" viewBox="0 0 38 38" fill="none" xmlns="http://www.w3.org/2000/svg">
<g id="fishing-rod">
<path id="Shape" fill-rule="evenodd" clip-rule="evenodd" d="M34.8471 22.3598L27.8636 2.07815C27.8676 1.91305 27.8428 1.75011 27.7885 1.59232C27.3933 0.444703 25.7902 0.307772 25.2229 1.42245L14.5138 23.345C13.9557 23.2807 13.3726 23.5625 13.1005 24.1196L8.76261 33C8.19831 34.0505 8.61233 35.5409 9.82039 36.1291C10.9866 36.6942 12.3821 36.1824 12.9285 35.0583C13.0687 34.7699 16.2081 28.3449 16.4137 27.9243C17.818 28.4299 19.38 27.9168 20.2114 26.6826L21.0312 27.0908L20.6565 27.8579C20.4743 28.2309 20.8373 28.634 21.2255 28.5004C21.3379 28.4616 21.4357 28.38 21.4921 28.2647L22.6459 25.903C22.7585 25.6723 22.6628 25.3944 22.4321 25.282C22.2013 25.1697 21.923 25.2656 21.8103 25.4961L21.4392 26.2558L20.6164 25.846C21.1079 24.3032 20.3882 22.6306 18.9105 21.9306L19.3974 21.763C21.5792 21.0117 22.7437 18.6279 21.9934 16.449L21.6911 15.5708L22.5703 15.2681C24.752 14.5169 25.9166 12.133 25.1663 9.95408L24.864 9.07595L25.7432 8.77319C26.9852 8.34556 27.8967 7.38862 28.3139 6.24186L33.968 22.6625C32.9413 23.4793 33.5105 25.1343 34.823 25.1459L35.5294 27.1972C35.6544 27.5604 35.4603 27.9576 35.0967 28.0829C34.7331 28.2081 34.3355 28.0145 34.2105 27.6513L34.1349 27.4318C34.5231 27.2981 34.5609 26.757 34.1877 26.5752L33.5969 26.2875C33.226 26.107 32.8187 26.4656 32.9533 26.8564L33.3312 27.9541C33.623 28.8014 34.5506 29.2531 35.3991 28.961C36.2475 28.6689 36.7004 27.7418 36.4086 26.8944L35.7023 24.8431C36.7288 24.0264 36.1597 22.3715 34.8471 22.3598ZM26.0451 1.85661C26.186 1.56715 26.5159 1.51029 26.7391 1.66844L26.9148 2.1788C26.9143 2.18053 26.9141 2.1815 26.9141 2.1822L26.9141 2.18318C26.9145 2.19676 26.9078 2.21056 23.3487 9.49446L23.3468 9.49836L23.3459 9.50022L23.3454 9.50121L23.3452 9.50162C21.97 12.3161 20.0649 16.215 17.4259 21.6168C17.04 21.6274 16.6539 21.7061 16.2714 21.8642L26.0451 1.85661ZM10.2281 35.2941C10.9815 35.625 11.7661 35.3196 12.0996 34.6369L15.5923 27.4884C14.5584 26.7341 14.0898 25.4707 14.3191 24.267C14.1481 24.2802 14.0068 24.3814 13.936 24.5263L10.9641 30.6104L10.9601 30.6185C9.62483 33.3522 9.58661 33.4304 9.58641 33.4303L9.58646 33.4302C9.58652 33.43 9.58658 33.4298 9.58637 33.4302C9.24595 34.1907 9.57633 34.9767 10.2281 35.2941ZM19.7701 25.4247L18.8805 24.9817C19.0074 23.9696 18.0218 23.1576 17.0431 23.4946C16.3158 23.745 15.9277 24.5396 16.1777 25.2659C16.5102 26.2314 17.7368 26.5182 18.4651 25.8131L19.3702 26.2638C18.2623 27.7356 15.9249 27.388 15.3174 25.6235C14.9006 24.413 15.5475 23.0886 16.7596 22.6713C18.5004 22.0719 20.2152 23.6476 19.7701 25.4247ZM17.057 24.9631C17.1403 25.2052 17.4054 25.3343 17.6478 25.2508C17.8902 25.1674 18.0196 24.9025 17.9362 24.6604C17.8529 24.4183 17.5878 24.2892 17.3454 24.3727C17.103 24.4562 16.9736 24.721 17.057 24.9631ZM19.095 20.8849L18.7617 20.9997L20.9995 16.419L21.1141 16.7518C21.6977 18.4466 20.7919 20.3006 19.095 20.8849ZM21.9348 14.5047L22.2679 14.39C23.9648 13.8057 24.8705 11.9517 24.287 10.2569L24.1725 9.92433L21.9348 14.5047ZM25.4408 7.89515L25.1079 8.00978L27.3454 3.42967L27.4599 3.76205C28.0434 5.45679 27.1377 7.31086 25.4408 7.89515ZM34.3954 23.9043C34.4788 24.1464 34.7438 24.2754 34.9862 24.192C35.2287 24.1085 35.358 23.8436 35.2747 23.6015C35.1913 23.3594 34.9263 23.2304 34.6839 23.3138C34.4414 23.3973 34.312 23.6622 34.3954 23.9043Z" fill="black"/>
</g>
</svg>
