<svg width="609" height="141" viewBox="0 0 609 141" fill="none" xmlns="http://www.w3.org/2000/svg">
<g id="Group 54 Copy">
<path id="Fill 70" fill-rule="evenodd" clip-rule="evenodd" d="M137.423 54.6353L166.803 22.331V0.368652H21.0005V27.8447H125.594L70.6091 88.7381H106.406L116.354 77.803C147.28 85.3893 169.439 112.655 169.439 143.86C169.439 181.466 137.857 212.059 99.0399 212.059C60.2222 212.059 28.6435 181.466 28.6435 143.86H0C0 197.262 44.4281 240.705 99.0399 240.705C153.654 240.705 198.082 197.262 198.082 143.86C198.082 104.461 173.456 69.5054 137.423 54.6353" fill="#9FA0A1"/>
<path id="Fill 72" fill-rule="evenodd" clip-rule="evenodd" d="M509.074 47.0135C494.181 47.0135 479.658 50.3364 466.49 56.4834L470.635 26.2399H545.812L565.291 0.0117188H446.73L434.864 89.0476H467.201C479.223 80.4309 493.881 75.6594 509.074 75.6594C547.892 75.6594 579.473 106.253 579.473 143.86C579.473 181.468 547.892 212.061 509.074 212.061C470.257 212.061 438.678 181.468 438.678 143.86H410.032C410.032 197.262 454.463 240.707 509.074 240.707C563.686 240.707 608.117 197.262 608.117 143.86C608.117 90.4585 563.686 47.0135 509.074 47.0135" fill="#9FA0A1"/>
<path id="Fill 74" fill-rule="evenodd" clip-rule="evenodd" d="M304.692 212.061C265.874 212.061 234.293 181.468 234.293 143.863C234.293 106.253 265.874 75.6595 304.692 75.6595C343.509 75.6595 375.088 106.253 375.088 143.863C375.088 181.468 343.509 212.061 304.692 212.061M304.692 47.0136C302.418 47.0136 300.171 47.1176 297.935 47.2665L341.136 0H303.382L230.816 79.3935C230.824 79.403 230.831 79.4101 230.838 79.4195C215.188 96.5513 205.649 119.135 205.649 143.863C205.649 197.262 250.08 240.707 304.692 240.707C359.303 240.707 403.734 197.262 403.734 143.863C403.734 90.4586 359.303 47.0136 304.692 47.0136" fill="#9FA0A1"/>
</g>
</svg>
