<svg width="27" height="30" viewBox="0 0 27 30" fill="none" xmlns="http://www.w3.org/2000/svg">
<g id="headphones copy">
<path id="Shape" fill-rule="evenodd" clip-rule="evenodd" d="M13.1129 0C18.7806 0 23.3751 4.59457 23.3751 10.2623C24.8461 10.4447 26.2258 11.3968 26.2258 13.6317V18.9909C26.2258 21.2144 24.8404 22.1722 23.3751 22.3546C23.187 27.6169 20.0627 28.3637 16.4481 28.5291V28.8597C16.4481 29.4895 15.9376 30 15.3079 30H11.7104C11.0806 30 10.5701 29.4895 10.5701 28.8597V27.0068C10.5701 26.3771 11.0806 25.8666 11.7104 25.8666H15.2965C15.9262 25.8666 16.4367 26.3771 16.4367 27.0068V27.3888C20.1938 27.2235 22.0753 26.3056 22.2349 22.3888H21.1517C20.8368 22.3888 20.5815 22.1336 20.5815 21.8187V10.7982C20.5815 10.4833 20.8368 10.2281 21.1517 10.2281H22.2349C22.2349 5.19014 18.1508 1.10604 13.1129 1.10604C8.07497 1.10604 3.99088 5.19014 3.99088 10.2281H5.07412C5.38897 10.2281 5.64424 10.4833 5.64424 10.7982V21.8358C5.64424 22.1507 5.38897 22.4059 5.07412 22.4059H3.42075C1.75599 22.4059 0 21.4937 0 18.9852V13.626C0 11.4025 1.3854 10.4447 2.85063 10.2623C2.85063 4.59457 7.4452 0 13.1129 0ZM4.50399 21.2486V11.3284H3.39225C2.53136 11.3284 1.11174 11.642 1.11174 13.6089V18.9681C1.11174 20.9521 2.54846 21.2486 3.39225 21.2486H4.50399ZM15.3079 27.9989V28.8654H11.7104V27.0125H15.3079V27.9989ZM22.805 21.2657C23.6659 21.2657 25.0855 20.9521 25.0855 18.9852L25.114 13.6488C25.114 11.6648 23.6773 11.3683 22.8335 11.3683H21.7218V21.2657H22.805Z" fill="black"/>
</g>
</svg>
