<svg width="22" height="22" viewBox="0 0 22 22" fill="none" xmlns="http://www.w3.org/2000/svg">
<g id="instagram-2">
<path id="Shape" fill-rule="evenodd" clip-rule="evenodd" d="M21.4326 3.79912C21.7035 4.49549 21.8925 5.29913 21.9441 6.46808C21.9956 7.64139 22 8.01526 22 11.0022C22 13.9891 21.9871 14.363 21.9355 15.5363C21.884 16.7052 21.6947 17.5047 21.4241 18.2052C20.8523 19.6836 19.6832 20.8525 18.2043 21.4242C17.508 21.695 16.7042 21.884 15.5351 21.9355C14.3615 21.9872 13.9876 22 11.0001 22C8.01259 22 7.63848 21.9872 6.46512 21.9355C5.29578 21.884 4.49635 21.695 3.79565 21.4242C3.0649 21.1492 2.39862 20.715 1.84838 20.1563C1.28956 19.6062 0.855512 18.9444 0.576106 18.2052C0.305264 17.5089 0.116027 16.7052 0.0644782 15.5363C0.0129292 14.363 0 13.9891 0 11.0022C0 8.01526 0.0129292 7.64139 0.0688439 6.46372C0.120393 5.29477 0.309462 4.49549 0.580304 3.79493C0.855512 3.06431 1.28956 2.39817 1.84838 1.84802C2.39862 1.28495 3.06053 0.855181 3.80002 0.575828C4.49635 0.305206 5.30014 0.116005 6.46931 0.0644659C7.64285 0.0129267 8.01679 0 11.0043 0C13.9918 0 14.3657 0.0129267 15.5436 0.0688308C16.7128 0.12037 17.5124 0.309403 18.2129 0.580193C18.9437 0.855181 19.6099 1.28932 20.1602 1.84802C20.7234 2.39817 21.1532 3.05995 21.4326 3.79912ZM19.5842 17.4918C19.7347 17.105 19.9152 16.5248 19.9626 15.4503C20.0141 14.2899 20.027 13.9461 20.027 11.0107C20.027 8.07536 20.0141 7.72735 19.9626 6.56696C19.9152 5.49673 19.7347 4.91234 19.5842 4.52554C19.4079 4.04843 19.1285 3.61865 18.7632 3.26191C18.4107 2.8966 17.9765 2.61725 17.4995 2.44114C17.1126 2.29072 16.5323 2.11025 15.4576 2.06291C14.3012 2.01137 13.9532 1.99844 11.0128 1.99844C8.07707 1.99844 7.72882 2.01137 6.56821 2.06291C5.49794 2.11025 4.91327 2.29072 4.5264 2.44114C4.0492 2.61725 3.61934 2.8966 3.2627 3.26191C2.89296 3.61446 2.61355 4.04843 2.43724 4.52554C2.28679 4.91234 2.10629 5.49253 2.0591 6.56696C2.00739 7.72298 1.99463 8.07536 1.99463 11.0107C1.99463 13.9461 2.00739 14.2943 2.0591 15.4547C2.10629 16.5248 2.28679 17.1093 2.43724 17.4961C2.61355 17.9731 2.89296 18.4028 3.25833 18.7596C3.61078 19.1249 4.045 19.4042 4.52204 19.5805C4.90891 19.7309 5.48921 19.9114 6.56385 19.9586C7.72026 20.0103 8.07271 20.023 11.0086 20.023C13.9446 20.023 14.2927 20.0103 15.4533 19.9586C16.5237 19.9114 17.1082 19.7309 17.4951 19.5805C18.4537 19.2108 19.2145 18.4502 19.5842 17.4918Z" fill="#3A337C"/>
<path id="Shape_2" fill-rule="evenodd" clip-rule="evenodd" d="M5.22021 10.9067C5.22021 7.76715 7.76732 5.22021 10.9067 5.22021C14.0462 5.22021 16.5931 7.76715 16.5931 10.9067C16.5931 14.0462 14.0462 16.5931 10.9067 16.5931C7.76732 16.5931 5.22021 14.0462 5.22021 10.9067ZM7.218 10.9067C7.218 12.9435 8.87002 14.5953 10.9067 14.5953C12.9435 14.5953 14.5953 12.9435 14.5953 10.9067C14.5953 8.86985 12.9435 7.218 10.9067 7.218C8.87002 7.218 7.218 8.86985 7.218 10.9067Z" fill="#3A337C"/>
<path id="Path" d="M18.0848 5.03409C18.0848 5.7548 17.5004 6.33917 16.7796 6.33917C16.0589 6.33917 15.4746 5.7548 15.4746 5.03409C15.4746 4.31321 16.0589 3.729 16.7796 3.729C17.5004 3.729 18.0848 4.31321 18.0848 5.03409V5.03409Z" fill="#3A337C"/>
</g>
</svg>
