<svg width="30" height="30" viewBox="0 0 30 30" fill="none" xmlns="http://www.w3.org/2000/svg">
<g id="job">
<path id="Shape" fill-rule="evenodd" clip-rule="evenodd" d="M27.496 17.6434V13.0771C27.8169 12.712 27.9945 12.2429 27.9959 11.7568V6.49905C27.9959 5.39464 27.1006 4.49934 25.9962 4.49934H20.9969V3.49949C20.9944 1.5678 19.4291 0.00247882 17.4974 0H10.4985C8.56678 0.00247882 7.00145 1.5678 6.99898 3.49949V4.49934H1.99971C0.895299 4.49934 0 5.39464 0 6.49905V11.7568C0.00139912 12.2429 0.17902 12.712 0.499927 13.0771V22.9966C0.499927 24.101 1.39523 24.9963 2.49963 24.9963H16.2926C17.1451 27.8653 19.7281 29.8743 22.7187 29.9943C25.7092 30.1144 28.4449 28.3189 29.5246 25.5275C30.6043 22.7361 29.7889 19.567 27.496 17.6434ZM7.99883 3.49949C8.00048 2.11966 9.11864 1.00151 10.4985 0.999854H17.4974C18.8773 1.00151 19.9954 2.11966 19.9971 3.49949V4.49934H18.9972V3.49949C18.9972 2.67118 18.3257 1.99971 17.4974 1.99971H10.4985C9.67016 1.99971 8.99868 2.67118 8.99868 3.49949V4.49934H7.99883V3.49949ZM9.99854 4.49934H17.9974V3.49949C17.9974 3.22339 17.7735 2.99956 17.4974 2.99956H10.4985C10.2224 2.99956 9.99854 3.22339 9.99854 3.49949V4.49934ZM0.999854 6.49905C0.999854 5.94685 1.4475 5.4992 1.99971 5.4992H25.9962C26.5484 5.4992 26.996 5.94685 26.996 6.49905V11.7568C26.9972 12.1368 26.7822 12.4845 26.4416 12.6531C25.4208 13.1431 22.7072 13.953 15.9972 13.994C15.995 13.1674 15.3244 12.4984 14.4979 12.4982H13.498C12.6713 12.4982 12.0004 13.1672 11.9982 13.994C5.28823 13.955 2.57462 13.1441 1.55377 12.6531C1.2134 12.4843 0.998587 12.1367 0.999854 11.7568V6.49905ZM14.9978 15.9977V13.998C14.9978 13.7218 14.774 13.498 14.4979 13.498H13.498C13.2219 13.498 12.9981 13.7218 12.9981 13.998V15.9977C12.9981 16.5499 13.4457 16.9975 13.998 16.9975C14.5502 16.9975 14.9978 16.5499 14.9978 15.9977ZM2.49963 23.9965C1.94743 23.9965 1.49978 23.5488 1.49978 22.9966V13.7185C2.98806 14.3184 5.98912 14.9598 11.9982 14.9943V15.9977C11.9982 17.1021 12.8935 17.9974 13.998 17.9974C15.1024 17.9974 15.9977 17.1021 15.9977 15.9977V14.9943C22.0068 14.9598 25.0078 14.3194 26.4961 13.7185V16.9445C24.1797 15.5792 21.2842 15.6696 19.0575 17.1768C16.8308 18.684 15.6708 21.3386 16.0776 23.9965H2.49963ZM16.9975 22.9966C16.9975 26.3099 19.6834 28.9958 22.9966 28.9958C26.3084 28.9922 28.9922 26.3084 28.9958 22.9966C28.9958 19.6834 26.3099 16.9975 22.9966 16.9975C19.6834 16.9975 16.9975 19.6834 16.9975 22.9966Z" fill="black"/>
<path id="Path" d="M25.1015 20.19L21.5611 24.7424L20.8502 24.0315C20.654 23.842 20.3422 23.8447 20.1494 24.0376C19.9565 24.2304 19.9538 24.5422 20.1433 24.7384L21.2546 25.8497C21.3483 25.9435 21.4755 25.9962 21.6081 25.9962H21.639C21.7821 25.9873 21.9145 25.9173 22.0025 25.8042L25.8904 20.8049C26.0048 20.6644 26.0342 20.4729 25.9673 20.3045C25.9003 20.1362 25.7474 20.0172 25.5677 19.9936C25.388 19.9701 25.2097 20.0456 25.1015 20.191V20.19Z" fill="black"/>
</g>
</svg>
