<svg width="22" height="22" viewBox="0 0 22 22" fill="none" xmlns="http://www.w3.org/2000/svg">
<g id="linkedin-2">
<path id="Path" d="M21.9998 21.9998V13.9432C21.9998 9.98365 21.1518 6.95898 16.556 6.95898C14.3402 6.95898 12.863 8.16885 12.2612 9.32372H12.2065V7.31644H7.85693V21.9998H12.398V14.7131C12.398 12.7883 12.7536 10.946 15.1062 10.946C17.4314 10.946 17.4588 13.1183 17.4588 14.8231V21.9723H21.9998V21.9998Z" fill="#3A337C"/>
<path id="Path_2" d="M0.449219 7.4082H4.93901V22H0.449219V7.4082Z" fill="#3A337C"/>
<path id="Path_3" d="M2.69388 0C1.20663 0 0 1.20038 0 2.67992C0 4.15946 1.20663 5.38775 2.69388 5.38775C4.18112 5.38775 5.38775 4.15946 5.38775 2.67992C5.38775 1.20038 4.18112 0 2.69388 0Z" fill="#3A337C"/>
</g>
</svg>
