<svg width="37" height="30" viewBox="0 0 37 30" fill="none" xmlns="http://www.w3.org/2000/svg">
<g id="Group 5">
<g id="speaker">
<g id="Group">
<path id="Path" d="M9.39546 29.9999C7.69664 29.9999 6.31348 28.611 6.31348 26.9051V18.1939C6.31348 17.9132 6.53999 17.6858 6.81951 17.6858C7.09903 17.6858 7.32554 17.9132 7.32554 18.1939V26.9075C7.32554 28.0545 8.25327 28.9861 9.39546 28.9861C10.5377 28.9861 11.4654 28.0545 11.4654 26.9075V18.1939C11.4654 17.9132 11.6919 17.6858 11.9714 17.6858C12.2509 17.6858 12.4774 17.9132 12.4774 18.1939V26.9075C12.4774 28.6134 11.0943 29.9999 9.39546 29.9999V29.9999Z" fill="black"/>
<path id="Shape" fill-rule="evenodd" clip-rule="evenodd" d="M5.54932 18.7021H14.6627C14.9423 18.7021 15.1688 18.4747 15.1664 18.194V5.41281C15.1664 5.13212 14.9399 4.90466 14.6603 4.90466H5.54932C3.93242 4.90466 2.61914 6.22585 2.61914 7.84709V15.7597C2.61914 17.3834 3.93483 18.7021 5.54932 18.7021ZM3.63121 7.84951C3.63121 6.78723 4.49146 5.92338 5.54932 5.92338H14.1543V17.6882H5.54932C4.49146 17.6882 3.63121 16.8244 3.63121 15.7621V7.84951Z" fill="black"/>
<path id="Shape_2" fill-rule="evenodd" clip-rule="evenodd" d="M27.849 23.578C27.9045 23.5997 27.9647 23.6094 28.0225 23.6094C28.1238 23.6094 28.225 23.578 28.3117 23.5175C28.4491 23.4231 28.5286 23.2682 28.5286 23.1013V0.507991C28.5286 0.343448 28.4467 0.186163 28.3117 0.0917929C28.1768 -0.00257768 28.0033 -0.0267753 27.849 0.0312989L14.4898 4.93857C14.2898 5.01116 14.1572 5.20232 14.1572 5.41526V18.194C14.1572 18.4069 14.2898 18.5981 14.4898 18.6707L27.849 23.578ZM27.5165 22.3753L15.1693 17.8383V5.77096L27.5165 1.23392V22.3753Z" fill="black"/>
<path id="Path_2" d="M25.3429 22.6246C25.0634 22.6246 24.8369 22.3972 24.8369 22.1165V1.49045C24.8369 1.20976 25.0634 0.9823 25.3429 0.9823C25.6225 0.9823 25.849 1.20976 25.849 1.49045V22.1165C25.849 22.3972 25.6225 22.6246 25.3429 22.6246Z" fill="black"/>
<path id="Path_3" d="M28.02 14.8983C27.7477 14.8983 27.5236 14.6805 27.514 14.407C27.5043 14.1264 27.7236 13.8916 28.0031 13.882C29.1212 13.8457 30.02 12.8995 30.0032 11.7744C29.9887 10.6855 29.0971 9.76837 28.0152 9.72724C28.0128 9.72724 28.0104 9.72724 28.008 9.72724C27.7333 9.7224 27.514 9.49736 27.514 9.21909C27.514 8.93839 27.7405 8.71094 28.02 8.71094H28.0417H28.0489C28.8393 8.73997 29.5791 9.07148 30.1357 9.64254C30.6924 10.216 31.0056 10.9662 31.0152 11.7598C31.0273 12.5777 30.7237 13.3545 30.1598 13.9449C29.5984 14.5329 28.8441 14.8716 28.0345 14.8983C28.0321 14.8983 28.0272 14.8983 28.02 14.8983V14.8983Z" fill="black"/>
<path id="Shape_3" fill-rule="evenodd" clip-rule="evenodd" d="M1.83136 15.0242H3.12536C3.40488 15.0242 3.63139 14.7967 3.63139 14.516V9.09091C3.63139 8.81022 3.40488 8.58276 3.12536 8.58276H1.83136C0.821702 8.58276 0 9.4079 0 10.4218V13.1851C0 14.199 0.821702 15.0242 1.83136 15.0242ZM1.01207 10.4218C1.01207 9.96928 1.38075 9.59906 1.83136 9.59906H2.61933V14.0079H1.83136C1.38075 14.0079 1.01207 13.6376 1.01207 13.1851V10.4218Z" fill="black"/>
</g>
<path id="Path_4" d="M36.4369 12.439H33.7163C33.4479 12.439 33.2305 12.2752 33.2305 12.0731C33.2305 11.871 33.4479 11.7073 33.7163 11.7073H36.4369C36.7053 11.7073 36.9228 11.871 36.9228 12.0731C36.9228 12.2752 36.7053 12.439 36.4369 12.439Z" fill="black"/>
<path id="Path_5" d="M32.1249 8.04876C32.0293 8.04876 31.9354 8.01193 31.8628 7.94001C31.7176 7.79618 31.7176 7.5629 31.8628 7.41908L33.3344 5.96151C33.4796 5.81768 33.7152 5.81768 33.8604 5.96151C34.0056 6.10534 34.0056 6.33862 33.8604 6.48244L32.3888 7.94001C32.3162 8.01193 32.2205 8.04876 32.1249 8.04876Z" fill="black"/>
<path id="Path_6" d="M33.5965 16.8293C33.5009 16.8293 33.407 16.7942 33.3344 16.7205L31.8628 15.263C31.7176 15.1191 31.7176 14.8859 31.8628 14.742C32.008 14.5982 32.2436 14.5982 32.3888 14.742L33.8604 16.1996C34.0056 16.3434 34.0056 16.5767 33.8604 16.7205C33.786 16.7942 33.6921 16.8293 33.5965 16.8293Z" fill="black"/>
</g>
</g>
</svg>
