<svg width="22" height="16" viewBox="0 0 22 16" fill="none" xmlns="http://www.w3.org/2000/svg">
<path id="Path" d="M21.707 7.2807L14.707 0.280712C14.3146 -0.09826 13.6909 -0.0928402 13.3052 0.292893C12.9194 0.678626 12.914 1.30233 13.293 1.69471L18.586 6.9877H0.999998C0.447715 6.9877 0 7.43542 0 7.9877C0 8.53998 0.447715 8.9877 0.999998 8.9877H18.586L13.293 14.2807C13.033 14.5318 12.9288 14.9036 13.0203 15.2532C13.1118 15.6028 13.3848 15.8759 13.7345 15.9674C14.0841 16.0589 14.4559 15.9546 14.707 15.6947L21.707 8.6947C22.0973 8.3042 22.0973 7.6712 21.707 7.2807Z" fill="black"/>
</svg>
