<svg width="30" height="30" viewBox="0 0 30 30" fill="none" xmlns="http://www.w3.org/2000/svg">
<g id="planting">
<g id="g3561">
<g id="g3563">
<g id="g3565 Clipped">
<mask id="mask0_0_5114" style="mask-type:luminance" maskUnits="userSpaceOnUse" x="0" y="0" width="30" height="30">
<path id="path3567" fill-rule="evenodd" clip-rule="evenodd" d="M0 0L30 0L30 30L0 30L0 0Z" fill="white"/>
</mask>
<g mask="url(#mask0_0_5114)">
<g id="g3565">
<g id="g3571">
<path id="path3573" d="M17.4917 17.6846C17.5301 16.9687 17.8012 15.7148 19.0736 14.5879C22.9475 11.1574 27.8118 8.64496 27.8118 8.64496" stroke="black" stroke-linecap="round" stroke-linejoin="round"/>
</g>
<g id="g3575">
<path id="path3577" d="M17.4798 17.6842C17.437 16.9648 17.1585 15.7031 15.8992 14.5879C12.0253 11.1573 7.20361 8.65707 7.20361 8.65707" stroke="black" stroke-linecap="round" stroke-linejoin="round"/>
</g>
<g id="g3579">
<path id="path3581" d="M17.957 17.6842L17.957 0.439419" stroke="black" stroke-linecap="round" stroke-linejoin="round"/>
</g>
<g id="g3583">
<path id="path3585" d="M16.061 23.986L20.9308 22.986" stroke="black" stroke-linecap="round" stroke-linejoin="round"/>
</g>
<g id="g3587">
<path id="path3589" d="M16.061 23.986L20.9308 22.986" stroke="black" stroke-linecap="round" stroke-linejoin="round"/>
</g>
<g id="g3591">
<path id="path3593" d="M6.03952 24.5273L7.89377 27.739C8.1203 28.1313 7.98588 28.6329 7.59354 28.8595L6.56985 29.4505C6.17744 29.6771 5.67582 29.5426 5.44936 29.1502L1.71453 22.6814C1.48801 22.2891 1.62243 21.7874 2.01477 21.5609L3.03846 20.9699C3.4308 20.7433 3.93248 20.8777 4.15895 21.2701L5.01014 22.7443" stroke="black" stroke-linecap="round" stroke-linejoin="round"/>
</g>
<g id="g3595">
<path id="path3597" d="M7.73094 27.4567L8.76857 26.5363C9.10947 26.2339 9.58473 26.134 10.0186 26.2734L13.5827 27.419C13.975 27.5732 14.3956 27.6312 14.8125 27.5885L21.9078 26.8604C22.3498 26.8151 22.7749 26.6577 23.1468 26.4019L28.0446 23.0326C28.4377 22.6646 28.5107 22.0461 28.2149 21.5879C27.8912 21.0865 27.2442 20.9548 26.7668 21.2931L23.6056 22.9547C22.7731 23.3923 21.8608 23.6355 20.9311 23.6679L20.9719 22.9936C20.895 22.1793 20.3002 21.5256 19.5314 21.4109L15.9983 20.9821C15.1832 20.8605 14.776 20.5727 14.0654 20.1345C13.3721 19.7069 12.083 19.187 11.3847 18.9779C10.1588 18.6107 8.83402 18.7834 7.71775 19.4093L4.21777 21.3718" stroke="black" stroke-linecap="round" stroke-linejoin="round"/>
</g>
<g id="g3599">
<path id="path3601" d="M25.8973 12.7239C27.2703 11.3269 27.7368 9.60258 27.8796 8.87449C27.9154 8.69203 27.7401 8.51865 27.5242 8.52281C25.8611 8.55451 19.7045 9.03504 19.0361 14.3841C19.0158 14.5465 19.1605 14.6998 19.351 14.7173C21.4486 14.911 23.0381 14.5604 24.2413 13.9421" stroke="black" stroke-linecap="round" stroke-linejoin="round"/>
</g>
<g id="g3603">
<path id="path3605" fill-rule="evenodd" clip-rule="evenodd" d="M7.50116 8.52281C9.16429 8.55451 15.3209 9.03504 15.9893 14.3841C16.0096 14.5465 15.8649 14.6998 15.6744 14.7174C8.88761 15.344 7.42007 10.2725 7.14579 8.87449C7.10993 8.69209 7.28524 8.51871 7.50116 8.52281Z" stroke="black" stroke-linecap="round" stroke-linejoin="round"/>
</g>
<g id="g3607">
<path id="path3609" fill-rule="evenodd" clip-rule="evenodd" d="M17.6858 0.550129C17.5921 0.402531 17.3814 0.402531 17.2877 0.550129C16.4182 1.92005 13.1843 7.66628 17.4797 11.3846H17.4938C21.7892 7.66628 18.5553 1.92005 17.6858 0.550129Z" stroke="black" stroke-linecap="round" stroke-linejoin="round"/>
</g>
<g id="g3611">
<path id="path3613" d="M26.1327 21.6263L24.0629 19.9758C20.5905 17.2067 15.7565 16.9472 12.0288 19.1972" stroke="black" stroke-linecap="round" stroke-linejoin="round"/>
</g>
</g>
</g>
</g>
</g>
</g>
</g>
</svg>
